<?xml version="1.0" standalone="no"?><!DOCTYPE svg PUBLIC "-//W3C//DTD SVG 1.1//EN" "http://www.w3.org/Graphics/SVG/1.1/DTD/svg11.dtd"><svg t="1702349338049" class="icon" viewBox="0 0 1024 1024" version="1.1" xmlns="http://www.w3.org/2000/svg" p-id="7844" xmlns:xlink="http://www.w3.org/1999/xlink" width="200" height="200"><path d="M859.6992 968.6528H159.8976c-48.128 0-83.0976-39.4752-83.0976-83.4048V428.8512c0-17.5616 13.1072-30.72 30.6176-30.72h809.1648c17.5104 0 30.6176 13.1584 30.6176 30.72v456.3968c0 48.2816-39.3728 83.4048-87.5008 83.4048z m-472.3712-149.1968v-175.5648c0-13.1584-8.704-21.9136-21.8624-21.9136H225.536c-13.1584 0-21.9136 8.7552-21.9136 21.9136v175.5648c0 13.1584 8.7552 21.9136 21.9136 21.9136h139.9296c13.1072 0 21.8624-8.7552 21.8624-21.9136zM486.4 359.5776H107.4176c-17.5104 0-30.6176-17.5616-21.8624-35.072l78.7456-186.9824A56.832 56.832 0 0 1 216.7808 102.4H486.4v257.1776z m421.4272 0h-382.464V102.4h273.1008c21.9136 0 43.776 13.1584 52.5312 35.1232l78.6944 186.9824c4.4032 17.5104-4.352 35.072-21.8624 35.072z" fill="#515151" p-id="7845"></path></svg>