<?xml version="1.0" standalone="no"?><!DOCTYPE svg PUBLIC "-//W3C//DTD SVG 1.1//EN" "http://www.w3.org/Graphics/SVG/1.1/DTD/svg11.dtd"><svg t="1702888005324" class="icon" viewBox="0 0 1024 1024" version="1.1" xmlns="http://www.w3.org/2000/svg" p-id="14339" xmlns:xlink="http://www.w3.org/1999/xlink" width="200" height="200"><path d="M512 293.546667a128 128 0 0 0 47.786667 17.706666 79.146667 79.146667 0 0 1 9.6 2.346667c8.96 2.773333 19.2 15.786667 28.373333 35.2l12.8 27.093333 29.44-2.773333h3.626667A39.04 39.04 0 0 1 682.666667 408.533333a40.106667 40.106667 0 0 1-26.453334 36.053334l-23.893333 9.386666-2.773333 25.6a111.786667 111.786667 0 0 1-12.586667 41.6C586.88 576 514.986667 576 512 576s-74.88 0-104.96-54.826667a111.786667 111.786667 0 0 1-12.586667-41.6l-2.773333-25.6-23.893333-9.386666A40.106667 40.106667 0 0 1 341.333333 408.533333a39.04 39.04 0 0 1 38.826667-35.626666H384l29.653333 2.773333 12.8-27.093333c9.173333-19.413333 19.413333-32.426667 28.373334-35.2a79.146667 79.146667 0 0 1 9.6-2.346667 128 128 0 0 0 47.573333-17.493333M512 234.666667a85.333333 85.333333 0 0 1-17.706667 19.2 133.12 133.12 0 0 1-53.333333 19.2 97.706667 97.706667 0 0 0-53.333333 57.6h-7.466667A81.92 81.92 0 0 0 298.666667 407.466667a83.413333 83.413333 0 0 0 53.333333 76.8 153.173333 153.173333 0 0 0 17.706667 57.6c42.666667 75.306667 134.4 76.8 142.293333 76.8s100.48-1.493333 142.293333-76.8a153.173333 153.173333 0 0 0 17.706667-57.6 83.413333 83.413333 0 0 0 53.333333-76.8 81.92 81.92 0 0 0-81.493333-77.226667h-7.466667a97.706667 97.706667 0 0 0-53.333333-57.6 133.12 133.12 0 0 1-53.333333-19.2A85.333333 85.333333 0 0 1 512 234.666667z" p-id="14340" fill="#49b1f5"></path><path d="M512 128a298.666667 298.666667 0 1 1-298.666667 298.666667A298.666667 298.666667 0 0 1 512 128m0-42.666667a341.333333 341.333333 0 1 0 341.333333 341.333334A341.333333 341.333333 0 0 0 512 85.333333z" p-id="14341" fill="#49b1f5"></path><path d="M445.866667 739.84l-99.413334 124.16-32.64-53.333333-5.333333-9.173334-9.813333-6.186666-64-37.973334 72.106666-84.053333A336 336 0 0 1 277.333333 643.626667L170.666667 768l106.666666 64 64 106.666667 154.24-192a347.733333 347.733333 0 0 1-49.706666-6.826667zM746.666667 643.626667a336 336 0 0 1-30.72 29.653333l72.106666 84.053333-64 37.973334-9.173333 5.546666-5.333333 9.173334-32 53.973333-99.413334-124.16a347.733333 347.733333 0 0 1-49.706666 5.973333L682.666667 938.666667l64-106.666667 106.666666-64z" p-id="14342" fill="#49b1f5"></path></svg>