<?xml version="1.0" standalone="no"?><!DOCTYPE svg PUBLIC "-//W3C//DTD SVG 1.1//EN" "http://www.w3.org/Graphics/SVG/1.1/DTD/svg11.dtd"><svg t="1702285446574" class="icon" viewBox="0 0 1050 1024" version="1.1" xmlns="http://www.w3.org/2000/svg" p-id="5182" xmlns:xlink="http://www.w3.org/1999/xlink" width="205.078125" height="200"><path d="M483.983113 67.356778q109.997203 0 202.919369 54.243904t147.166069 147.166069T888.218118 471.68612q0 132.166451-77.073512 237.729805T611.904389 855.449948q-14.244921 2.641442-21.037201-3.679152t-6.886618-15.754317q0-1.603733 0.283012-40.281994t0.283012-70.847256q0-51.036438-27.452133-74.715081 29.999237-3.207466 53.960893-9.52806t49.527042-20.471177 42.640425-34.99911 27.923819-55.281614 10.754443-79.243268q0-62.639917-41.602715-108.487807 19.527805-47.92331-4.150838-107.355761-14.810944-4.716861-42.640426 5.75457t-48.489333 23.206957L585.01828 276.408066q-48.961019-13.678897-101.035167-13.678897T382.853609 276.408066q-8.396013-5.848908-22.357922-14.24492t-43.961147-20.282504-44.715844-7.075291q-23.678643 59.432451-4.245175 107.355761-41.602716 45.847891-41.602716 108.487807 0 44.715844 10.848781 78.960257t27.640807 55.281613 42.357413 35.282122 49.432706 20.471177 53.960892 9.52806q-20.471178 18.961782-25.754063 54.243904-11.037455 5.188547-23.678643 7.829989t-29.999237 2.641443-34.527424-11.320467-29.150202-32.923691q-9.999746-16.792026-25.565388-27.357795T215.499373 630.644343l-10.565769-1.509396q-11.037455 0-15.28263 2.358431t-2.641442 6.037582 4.811198 7.358303 6.79228 6.320594l3.679152 2.641443q11.603479 5.282885 22.923945 19.999491t16.603352 26.791772l5.282884 12.169502q6.79228 19.999491 23.11262 32.357668t35.282122 15.754316 36.602843 3.679152 29.244539-1.792407l12.075165-2.075419q0 19.999491 0.283012 46.508251t0.188674 28.772853q0 9.433722-6.79228 15.754317t-21.037201 3.679152Q233.895132 814.884941 156.82162 709.415925T79.653771 471.68612q0-109.997203 54.243903-202.919369t147.071733-147.166069 203.013706-54.243904zM232.857422 648.002392q1.603733-3.679152-3.679151-6.320594-5.282885-1.509396-6.886618 1.132047-1.509396 3.679152 3.679152 6.320594 4.811198 3.113128 6.886617-1.132047z m16.32034 17.924072q3.679152-2.641442-1.037709-8.396013-5.282885-4.716861-8.49035-1.603732-3.679152 2.641442 1.132046 8.396013 5.188547 5.282885 8.396013 1.603732z m15.754317 23.678644q4.811198-3.679152 0-9.999746-4.150838-6.79228-8.962037-3.113128-4.716861 2.641442 0 9.433722t8.962037 3.679152z m22.169247 22.169247q4.150838-4.245175-2.169756-9.999745-6.320594-6.320594-10.471432-1.603733-4.716861 4.245175 2.075419 9.999745 6.320594 6.320594 10.565769 1.603733z m29.999238 13.112874q1.509396-5.754571-6.886618-8.396012-7.924327-2.075419-9.999746 3.679151t6.886618 7.924327q7.82999 3.113128 9.999746-3.207466z m33.112365 2.641443q0-6.79228-8.962036-5.754571-8.396013 0-8.396013 5.754571 0 6.886617 8.962036 5.75457 8.396013 0 8.396013-5.75457z m30.565261-5.282885q-1.037709-5.754571-9.433723-4.716861-8.49035 1.603733-7.45264 7.924327t9.528059 4.150838 7.358304-7.358304z" p-id="5183" fill="#ffffff"></path></svg>