<?xml version="1.0" standalone="no"?><!DOCTYPE svg PUBLIC "-//W3C//DTD SVG 1.1//EN" "http://www.w3.org/Graphics/SVG/1.1/DTD/svg11.dtd"><svg t="1702286456445" class="icon" viewBox="0 0 1024 1024" version="1.1" xmlns="http://www.w3.org/2000/svg" p-id="8438" xmlns:xlink="http://www.w3.org/1999/xlink" width="200" height="200"><path d="M521.8304 198.912l-223.104 127.4624-98.2272 0.0256A57.6 57.6 0 0 0 142.8992 384v256l0.128 3.9424a57.6 57.6 0 0 0 57.472 53.6576l98.176-0.0256 223.1552 127.5136a57.6 57.6 0 0 0 86.1952-49.9968V248.9088a57.6 57.6 0 0 0-86.1952-49.9968z m22.1696 61.0304v504.0896l-228.2752-130.432-108.8512-0.0256v-243.2l108.8512 0.0256 228.2752-130.4576zM653.952 371.0208a32 32 0 0 1 44.8512-5.9648c42.1376 32.2304 63.3088 79.488 63.3088 138.624s-21.1712 106.3936-63.3088 138.624a32 32 0 0 1-38.8864-50.8416c25.5488-19.5328 38.1952-47.7696 38.1952-87.808 0-40.0128-12.6464-68.224-38.1952-87.7824a32 32 0 0 1-5.9648-44.8512z" fill="#FB553C" p-id="8439"></path><path d="M723.9168 261.7088a32 32 0 0 1 44.8512-5.9648c74.8288 57.216 112.3328 140.9024 112.3328 247.936 0 107.008-37.504 190.72-112.3328 247.936a32 32 0 1 1-38.8864-50.8416c58.24-44.544 87.2192-109.2096 87.2192-197.12 0-87.8848-28.9792-152.5504-87.2192-197.0944a32 32 0 0 1-5.9648-44.8512z" fill="#FB553C" p-id="8440"></path></svg>